<mxfile host="app.diagrams.net" modified="2024-03-16T20:03:13.289Z" agent="Mozilla/5.0 (Windows NT 10.0; Win64; x64) AppleWebKit/537.36 (KHTML, like Gecko) Chrome/122.0.0.0 Safari/537.36" etag="WGa8Cvqjiw4lQ4svd5UW" version="23.1.8" type="device">
  <diagram name="Page-1" id="MYz7RTz76ZWnWLzcMZw5">
    <mxGraphModel dx="794" dy="420" grid="1" gridSize="10" guides="1" tooltips="1" connect="1" arrows="1" fold="1" page="1" pageScale="1" pageWidth="850" pageHeight="1100" math="0" shadow="0">
      <root>
        <mxCell id="0" />
        <mxCell id="1" parent="0" />
        <mxCell id="o6kM4bKryoIuUvgwhk_V-7" value="&lt;b&gt;Cluster 5&lt;/b&gt;" style="rounded=1;whiteSpace=wrap;html=1;fillColor=#fff2cc;strokeColor=#d6b656;" vertex="1" parent="1">
          <mxGeometry x="480" y="100" width="80" height="40" as="geometry" />
        </mxCell>
        <mxCell id="o6kM4bKryoIuUvgwhk_V-8" value="&lt;b&gt;Cluster 10&lt;/b&gt;" style="rounded=1;whiteSpace=wrap;html=1;fillColor=#fff2cc;strokeColor=#d6b656;" vertex="1" parent="1">
          <mxGeometry x="480" y="250" width="80" height="40" as="geometry" />
        </mxCell>
        <mxCell id="o6kM4bKryoIuUvgwhk_V-9" value="&lt;b&gt;Cluster 1&lt;/b&gt;" style="rounded=1;whiteSpace=wrap;html=1;fillColor=#d5e8d4;strokeColor=#82b366;" vertex="1" parent="1">
          <mxGeometry x="160" y="40" width="80" height="20" as="geometry" />
        </mxCell>
        <mxCell id="o6kM4bKryoIuUvgwhk_V-11" value="&lt;b&gt;Cluster 5&lt;/b&gt;" style="rounded=1;whiteSpace=wrap;html=1;fillColor=#fff2cc;strokeColor=#d6b656;" vertex="1" parent="1">
          <mxGeometry x="160" y="100" width="80" height="40" as="geometry" />
        </mxCell>
        <mxCell id="o6kM4bKryoIuUvgwhk_V-12" value="&lt;b&gt;Cluster 9&lt;/b&gt;" style="rounded=1;whiteSpace=wrap;html=1;fillColor=#fff2cc;strokeColor=#d6b656;" vertex="1" parent="1">
          <mxGeometry x="160" y="190" width="80" height="40" as="geometry" />
        </mxCell>
        <mxCell id="o6kM4bKryoIuUvgwhk_V-18" value="&lt;b&gt;Cluster 11&lt;/b&gt;" style="rounded=1;whiteSpace=wrap;html=1;fillColor=#fff2cc;strokeColor=#d6b656;" vertex="1" parent="1">
          <mxGeometry x="480" y="290" width="80" height="40" as="geometry" />
        </mxCell>
        <mxCell id="o6kM4bKryoIuUvgwhk_V-24" value="&lt;b&gt;Cluster 14&lt;/b&gt;" style="rounded=1;whiteSpace=wrap;html=1;fillColor=#fff2cc;strokeColor=#d6b656;" vertex="1" parent="1">
          <mxGeometry x="160" y="300" width="80" height="40" as="geometry" />
        </mxCell>
        <mxCell id="o6kM4bKryoIuUvgwhk_V-28" value="&lt;b&gt;Cluster 8&lt;/b&gt;" style="rounded=1;whiteSpace=wrap;html=1;fillColor=#fff2cc;strokeColor=#d6b656;" vertex="1" parent="1">
          <mxGeometry x="480" y="190" width="80" height="40" as="geometry" />
        </mxCell>
        <mxCell id="o6kM4bKryoIuUvgwhk_V-32" value="&lt;b&gt;Cluster 4&lt;/b&gt;" style="rounded=1;whiteSpace=wrap;html=1;fillColor=#d5e8d4;strokeColor=#82b366;" vertex="1" parent="1">
          <mxGeometry x="160" y="80" width="80" height="20" as="geometry" />
        </mxCell>
        <mxCell id="o6kM4bKryoIuUvgwhk_V-33" value="&lt;b&gt;Cluster 1&lt;/b&gt;" style="rounded=1;whiteSpace=wrap;html=1;fillColor=#d5e8d4;strokeColor=#82b366;" vertex="1" parent="1">
          <mxGeometry x="480" y="40" width="80" height="20" as="geometry" />
        </mxCell>
        <mxCell id="o6kM4bKryoIuUvgwhk_V-35" value="&lt;b&gt;Cluster 4&lt;/b&gt;" style="rounded=1;whiteSpace=wrap;html=1;fillColor=#d5e8d4;strokeColor=#82b366;" vertex="1" parent="1">
          <mxGeometry x="480" y="80" width="80" height="20" as="geometry" />
        </mxCell>
        <mxCell id="o6kM4bKryoIuUvgwhk_V-37" value="" style="endArrow=classic;html=1;rounded=0;exitX=1;exitY=0.5;exitDx=0;exitDy=0;entryX=0;entryY=0.5;entryDx=0;entryDy=0;" edge="1" parent="1" source="o6kM4bKryoIuUvgwhk_V-11" target="o6kM4bKryoIuUvgwhk_V-8">
          <mxGeometry width="50" height="50" relative="1" as="geometry">
            <mxPoint x="380" y="150" as="sourcePoint" />
            <mxPoint x="430" y="100" as="targetPoint" />
          </mxGeometry>
        </mxCell>
        <mxCell id="o6kM4bKryoIuUvgwhk_V-38" value="&lt;b&gt;Available\$FileDir&lt;/b&gt;" style="text;html=1;align=center;verticalAlign=middle;resizable=0;points=[];autosize=1;strokeColor=none;fillColor=none;rotation=30;" vertex="1" parent="1">
          <mxGeometry x="280" y="160" width="120" height="30" as="geometry" />
        </mxCell>
        <mxCell id="o6kM4bKryoIuUvgwhk_V-40" value="" style="endArrow=classic;html=1;rounded=0;exitX=1;exitY=0.5;exitDx=0;exitDy=0;entryX=0;entryY=0.5;entryDx=0;entryDy=0;" edge="1" parent="1" source="o6kM4bKryoIuUvgwhk_V-12" target="o6kM4bKryoIuUvgwhk_V-7">
          <mxGeometry width="50" height="50" relative="1" as="geometry">
            <mxPoint x="380" y="150" as="sourcePoint" />
            <mxPoint x="430" y="100" as="targetPoint" />
          </mxGeometry>
        </mxCell>
        <mxCell id="o6kM4bKryoIuUvgwhk_V-41" value="&lt;b&gt;Concat&lt;/b&gt;" style="text;html=1;align=center;verticalAlign=middle;resizable=0;points=[];autosize=1;strokeColor=none;fillColor=none;rotation=-20;" vertex="1" parent="1">
          <mxGeometry x="380" y="120" width="60" height="30" as="geometry" />
        </mxCell>
        <mxCell id="o6kM4bKryoIuUvgwhk_V-42" value="" style="endArrow=classic;html=1;rounded=0;exitX=1;exitY=0.75;exitDx=0;exitDy=0;entryX=0;entryY=0.5;entryDx=0;entryDy=0;" edge="1" parent="1" source="o6kM4bKryoIuUvgwhk_V-11" target="o6kM4bKryoIuUvgwhk_V-18">
          <mxGeometry width="50" height="50" relative="1" as="geometry">
            <mxPoint x="380" y="150" as="sourcePoint" />
            <mxPoint x="430" y="100" as="targetPoint" />
          </mxGeometry>
        </mxCell>
        <mxCell id="o6kM4bKryoIuUvgwhk_V-43" value="&lt;b&gt;Javadoc\$AccessType&lt;/b&gt;" style="text;html=1;align=center;verticalAlign=middle;resizable=0;points=[];autosize=1;strokeColor=none;fillColor=none;rotation=45;" vertex="1" parent="1">
          <mxGeometry x="230" y="180" width="150" height="30" as="geometry" />
        </mxCell>
        <mxCell id="o6kM4bKryoIuUvgwhk_V-44" value="" style="endArrow=classic;html=1;rounded=0;exitX=1;exitY=0.5;exitDx=0;exitDy=0;entryX=0;entryY=1;entryDx=0;entryDy=0;" edge="1" parent="1" source="o6kM4bKryoIuUvgwhk_V-24" target="o6kM4bKryoIuUvgwhk_V-7">
          <mxGeometry width="50" height="50" relative="1" as="geometry">
            <mxPoint x="250" y="220" as="sourcePoint" />
            <mxPoint x="490" y="130" as="targetPoint" />
          </mxGeometry>
        </mxCell>
        <mxCell id="o6kM4bKryoIuUvgwhk_V-45" value="&lt;b&gt;WeakishReference&lt;/b&gt;" style="text;html=1;align=center;verticalAlign=middle;resizable=0;points=[];autosize=1;strokeColor=none;fillColor=none;rotation=-40;" vertex="1" parent="1">
          <mxGeometry x="325" y="210" width="130" height="30" as="geometry" />
        </mxCell>
        <mxCell id="o6kM4bKryoIuUvgwhk_V-46" value="" style="endArrow=classic;html=1;rounded=0;exitX=1;exitY=0.75;exitDx=0;exitDy=0;entryX=0;entryY=0.5;entryDx=0;entryDy=0;" edge="1" parent="1" source="o6kM4bKryoIuUvgwhk_V-24" target="o6kM4bKryoIuUvgwhk_V-28">
          <mxGeometry width="50" height="50" relative="1" as="geometry">
            <mxPoint x="380" y="150" as="sourcePoint" />
            <mxPoint x="430" y="100" as="targetPoint" />
            <Array as="points" />
          </mxGeometry>
        </mxCell>
        <mxCell id="o6kM4bKryoIuUvgwhk_V-47" value="&lt;b&gt;Replace&lt;/b&gt;" style="text;html=1;align=center;verticalAlign=middle;resizable=0;points=[];autosize=1;strokeColor=none;fillColor=none;rotation=-30;" vertex="1" parent="1">
          <mxGeometry x="305" y="280" width="70" height="30" as="geometry" />
        </mxCell>
        <mxCell id="o6kM4bKryoIuUvgwhk_V-50" value="&lt;b&gt;&lt;font style=&quot;font-size: 15px;&quot;&gt;...&lt;/font&gt;&lt;/b&gt;" style="text;html=1;align=center;verticalAlign=middle;resizable=0;points=[];autosize=1;strokeColor=none;fillColor=none;" vertex="1" parent="1">
          <mxGeometry x="180" y="50" width="40" height="30" as="geometry" />
        </mxCell>
        <mxCell id="o6kM4bKryoIuUvgwhk_V-51" value="&lt;b&gt;&lt;font style=&quot;font-size: 15px;&quot;&gt;...&lt;/font&gt;&lt;/b&gt;" style="text;html=1;align=center;verticalAlign=middle;resizable=0;points=[];autosize=1;strokeColor=none;fillColor=none;" vertex="1" parent="1">
          <mxGeometry x="500" y="50" width="40" height="30" as="geometry" />
        </mxCell>
        <mxCell id="o6kM4bKryoIuUvgwhk_V-52" value="&lt;b&gt;Cluster 6&lt;/b&gt;" style="rounded=1;whiteSpace=wrap;html=1;fillColor=#d5e8d4;strokeColor=#82b366;" vertex="1" parent="1">
          <mxGeometry x="160" y="140" width="80" height="20" as="geometry" />
        </mxCell>
        <mxCell id="o6kM4bKryoIuUvgwhk_V-53" value="&lt;b&gt;Cluster 6&lt;/b&gt;" style="rounded=1;whiteSpace=wrap;html=1;fillColor=#d5e8d4;strokeColor=#82b366;" vertex="1" parent="1">
          <mxGeometry x="480" y="140" width="80" height="20" as="geometry" />
        </mxCell>
        <mxCell id="o6kM4bKryoIuUvgwhk_V-54" value="&lt;b&gt;&lt;font style=&quot;font-size: 15px;&quot;&gt;...&lt;/font&gt;&lt;/b&gt;" style="text;html=1;align=center;verticalAlign=middle;resizable=0;points=[];autosize=1;strokeColor=none;fillColor=none;" vertex="1" parent="1">
          <mxGeometry x="180" y="160" width="40" height="30" as="geometry" />
        </mxCell>
        <mxCell id="o6kM4bKryoIuUvgwhk_V-55" value="&lt;b&gt;&lt;font style=&quot;font-size: 15px;&quot;&gt;...&lt;/font&gt;&lt;/b&gt;" style="text;html=1;align=center;verticalAlign=middle;resizable=0;points=[];autosize=1;strokeColor=none;fillColor=none;" vertex="1" parent="1">
          <mxGeometry x="500" y="160" width="40" height="30" as="geometry" />
        </mxCell>
        <mxCell id="o6kM4bKryoIuUvgwhk_V-56" value="&lt;b&gt;Cluster 10&lt;/b&gt;" style="rounded=1;whiteSpace=wrap;html=1;fillColor=#d5e8d4;strokeColor=#82b366;" vertex="1" parent="1">
          <mxGeometry x="160" y="230" width="80" height="20" as="geometry" />
        </mxCell>
        <mxCell id="o6kM4bKryoIuUvgwhk_V-57" value="&lt;b&gt;&lt;font style=&quot;font-size: 15px;&quot;&gt;...&lt;/font&gt;&lt;/b&gt;" style="text;html=1;align=center;verticalAlign=middle;resizable=0;points=[];autosize=1;strokeColor=none;fillColor=none;" vertex="1" parent="1">
          <mxGeometry x="180" y="240" width="40" height="30" as="geometry" />
        </mxCell>
        <mxCell id="o6kM4bKryoIuUvgwhk_V-60" value="&lt;b&gt;Cluster 13&lt;/b&gt;" style="rounded=1;whiteSpace=wrap;html=1;fillColor=#d5e8d4;strokeColor=#82b366;" vertex="1" parent="1">
          <mxGeometry x="160" y="280" width="80" height="20" as="geometry" />
        </mxCell>
        <mxCell id="o6kM4bKryoIuUvgwhk_V-63" value="&lt;b&gt;&lt;font style=&quot;font-size: 15px;&quot;&gt;...&lt;/font&gt;&lt;/b&gt;" style="text;html=1;align=center;verticalAlign=middle;resizable=0;points=[];autosize=1;strokeColor=none;fillColor=none;" vertex="1" parent="1">
          <mxGeometry x="500" y="225" width="40" height="30" as="geometry" />
        </mxCell>
        <mxCell id="o6kM4bKryoIuUvgwhk_V-64" value="&lt;b&gt;&lt;font style=&quot;font-size: 15px;&quot;&gt;...&lt;/font&gt;&lt;/b&gt;" style="text;html=1;align=center;verticalAlign=middle;resizable=0;points=[];autosize=1;strokeColor=none;fillColor=none;" vertex="1" parent="1">
          <mxGeometry x="500" y="320" width="40" height="30" as="geometry" />
        </mxCell>
        <mxCell id="o6kM4bKryoIuUvgwhk_V-65" value="SD clusters" style="text;html=1;align=center;verticalAlign=middle;whiteSpace=wrap;rounded=0;rotation=-89;" vertex="1" parent="1">
          <mxGeometry x="90" y="160" width="90" height="30" as="geometry" />
        </mxCell>
        <mxCell id="o6kM4bKryoIuUvgwhk_V-66" value="SD+LD clusters" style="text;html=1;align=center;verticalAlign=middle;whiteSpace=wrap;rounded=0;rotation=-89;" vertex="1" parent="1">
          <mxGeometry x="540" y="170" width="90" height="30" as="geometry" />
        </mxCell>
      </root>
    </mxGraphModel>
  </diagram>
</mxfile>
